<svg width="670" height="513" fill="none" xmlns="http://www.w3.org/2000/svg" style="width:100%;height:100%">
  <g clip-path="url(#a)">
    <path d="M572.632 130.912c-116.696 1.154-291.432-1.48-408.127-.326 2.057-10.739 1.485-19.442 3.409-29.489 50.551 1.637 345.403.807 408.047.807-1.829 9.552-2.523 16.419-3.329 29.008Z" fill="#010101" stroke="#010101" stroke-width="1.5" stroke-linecap="round" stroke-linejoin="round"/>
    <path d="M164.505 130.587c133.526 0 312.695.326 408.127.326-12.476 108.374-18.639 175.39-31.357 251.107-137.474-.695-266.455.002-403.931 0 6.181-36.798 21.791-204.791 27.16-251.432l.001-.001Z" fill="#fff" stroke="#010101" stroke-width="1.5" stroke-linecap="round" stroke-linejoin="round"/>
    <path d="M183.653 166.175c43.468 0 103.858-1.086 155.363 0-4.897 43.845-9.018 78.004-12.762 120.511-51.988 0-103.779.549-155.753 2.872.293-3.324 8.751-83.985 13.152-123.383Z" fill="#FF8B37" stroke="#010101" stroke-width="1.5" stroke-linecap="round" stroke-linejoin="round"/>
    <path d="M267.859 239.771c-5.866-16.353-28.267-40.279-34.186-46.419-.745-.773-2-.67-2.609.214-18.025 26.134-36.012 54.882-40.845 64.953-.036.075 1.136.001 1.22.001 28.499.015 48.854-.731 67.541-.731.744 0 1.491-.215 2.143-.573.714-.391 1.271-1.019 1.692-1.715 3.484-5.753 6.544-11.548 5.044-15.73Z" fill="#fff" stroke="#010101" stroke-width="1.5" stroke-linecap="round" stroke-linejoin="round"/>
    <path d="M244.873 257.901c8.617-14.471 26.425-35.61 31.887-42.071a1.695 1.695 0 0 1 2.665.085c4.902 6.645 22.072 29.141 29.502 40.641.547.847-.066 1.964-1.075 1.962-26.598-.033-45.223-.618-62.979-.618v.001ZM259.067 183.905c-2.584 2.584-3.123 6.683-2.015 10.166.459 1.442 1.158 2.842 2.256 3.884 2.23 2.117 5.627 2.373 8.691 2.118 1.733-.144 3.487-.424 5.048-1.19 3.504-1.72 4.782-5.914 4.604-9.814-.357-7.811-11.981-11.766-18.584-5.163v-.001ZM49.77 402.601c-6.638-6.434-13.255-12.867-19.929-19.186.823-7.679.211-9.652-1.036-16.426-.248-1.347-1.023-2.981-2.391-2.872-1.472.116-1.878 2.022-2.189 3.462-.659 3.054-.985 3.941-1.847 5.109-4.485 2.457-8.155 4.45-11.55 8.27-1.02 1.147-6.363.906-6.618 2.418-.226 1.343 4.022 4.961 4.879 6.021 8.627 10.675 16.795 20.009 24.335 29.704 3.114 4.004 21.854-11.161 16.345-16.501l.001.001ZM32.381 361.31a36.923 36.923 0 0 1-1.755-1.602l-4.058 1.742c2.004 1.479 2.989 2.772 4.825 4.515.214-1.224.632-3.11.988-4.655Z" fill="#fff" stroke="#010101" stroke-width="1.5" stroke-linecap="round" stroke-linejoin="round"/>
    <path d="M3.338 387.358a130.548 130.548 0 0 0-2.588 3.177c.778.928 3.242 3.519 4.323 4.232a156.045 156.045 0 0 0 3.008-2.979 1535.88 1535.88 0 0 1-2.605-2.437l-2.138-1.994v.001Z" fill="#010101" stroke="#010101" stroke-width="1.5" stroke-linecap="round" stroke-linejoin="round"/>
    <path d="M8.085 391.785c4.685-4.746 19.19-20.743 23.309-25.82-1.42-1.245-4.825-4.515-4.825-4.515-4.183 4.833-18.971 20.819-23.227 25.905l2.135 1.997 2.609 2.433h-.001Z" fill="#FF8B37" stroke="#010101" stroke-width="1.5" stroke-linecap="round" stroke-linejoin="round"/>
    <path d="m33 358.689-2.374 1.019a36.923 36.923 0 0 0 1.755 1.602c.337-1.463.619-2.621.619-2.621Z" fill="#010101" stroke="#010101" stroke-width="1.5" stroke-linecap="round" stroke-linejoin="round"/>
    <path d="M4.771 377.771c1.332-3.074 4.611-7.459 6.597-9.179.756-.655 1.452-1.565 2.382-1.986.933-.422 1.984-.301 2.965-.094 2.873.607 4.239.426 6.602 2.284 3.206 2.521 1.413 6.135-1.201 5.015-3.283-1.406-4.749-1.373-7.338-2.769 1.899.957 2.171.693 3.785 1.27 1.614.576 5.099 2.319 5.291 3.888.528 4.31-3.94 1.68-6.458 1.262-2.513-.418-3.947-1.127-6.391-1.868 2.052.627 3.033 1.13 5.085 1.757.914.279 1.877.937 2.63 1.561 1.843 1.529 1.835 3.93-2.504 3.465-2.993-.321-4.414-.813-7.419-2.394 1.797.5 2.488 1.595 4.19 2.388.997.464 4.823 4.276.664 4.722-2.434.261-5.292-.826-7.869-2.228-2.67-1.452-2.308-4.102-1.011-7.096v.002Z" fill="#fff" stroke="#010101" stroke-width="1.5" stroke-linecap="round" stroke-linejoin="round"/>
    <path d="M227.432 473.283a2685.869 2685.869 0 0 1 13.133-206.951c-60.24 5.042-131.049 14.181-190.406 21.45-3.943 14.489-23.39 135.067-33.284 195.938 21.645 1.734 42.253 1.777 69.42.074 51.466-2.102 102.75-7.298 141.137-10.511Z" fill="#E3E3FF" stroke="#010101" stroke-width="1.5" stroke-linecap="round" stroke-linejoin="round"/>
    <path d="M175.763 294.172a81.655 81.655 0 0 0-3.148-5.711c-.795-1.315-1.646-2.63-2.824-3.617-1.551-1.299-3.549-1.929-5.521-2.381-3.5-.802-7.153-1.138-10.689-.511-3.665.65-7.072 2.304-10.317 4.128-2.863 1.609-5.692 3.407-7.808 5.918-1.898 2.253-3.139 4.985-4.128 7.76-2.751 7.718-3.739 16.051-7.252 23.453-1.914 4.033-4.541 7.703-6.373 11.774a33.779 33.779 0 0 0-2.597 18.667l17.721-1.148c3.402-.22 6.853-.45 10.069-1.58 3.216-1.13 6.223-3.294 7.593-6.415 1.048-2.388 1.054-5.081 1.153-7.686.168-4.394.652-8.77 1.135-13.14.395-3.57.813-7.222 2.394-10.447 4.179-8.519 15.257-11.887 20.593-19.063l-.001-.001Z" fill="#010101" stroke="#010101" stroke-width="1.5" stroke-linecap="round" stroke-linejoin="round"/>
    <path d="M187.107 450.907c13.782-26.412 33.059-49.94 56.244-68.648 6.867-5.541 14.43-10.817 23.147-12.187 5.546-.872 11.866.217 15.425 4.559 5.464 6.665 1.831 16.597-2.186 24.222-13.954 26.487-30.345 51.689-47.418 76.179-7.502-1.591-15.041-3.192-22.199-5.944-7.158-2.752-13.981-6.728-19.093-12.444-2.379-2.661-4.388-5.692-3.919-5.736l-.001-.001Z" fill="#55D087" stroke="#010101" stroke-width="1.5" stroke-linecap="round" stroke-linejoin="round"/>
    <path d="M292.139 475.718c13.338-19.738 26.21-37.036 32.248-60.08 1.664-6.353 2.247-14.269-2.903-18.344-5.157-4.08-12.715-1.685-18.597 1.253-32.026 15.996-57.881 43.991-70.957 77.431 25.119 0 40.127.384 60.209-.26Z" fill="#55D087" stroke="#010101" stroke-width="1.5" stroke-linecap="round" stroke-linejoin="round"/>
    <path d="m290.044 438.116-7.187-20.893Z" fill="#55D087"/>
    <path d="m290.044 438.116-7.187-20.893" stroke="#010101" stroke-width="1.5" stroke-linecap="round" stroke-linejoin="round"/>
    <path d="M277.477 457.554a305.022 305.022 0 0 0 25.789-7.352Z" fill="#55D087"/>
    <path d="M277.477 457.554a305.022 305.022 0 0 0 25.789-7.352" stroke="#010101" stroke-width="1.5" stroke-linecap="round" stroke-linejoin="round"/>
    <path d="m246.853 404.459-5.129-14.175Z" fill="#55D087"/>
    <path d="m246.853 404.459-5.129-14.175" stroke="#010101" stroke-width="1.5" stroke-linecap="round" stroke-linejoin="round"/>
    <path d="M234.436 423.362a88.863 88.863 0 0 0 24.054-2.471Z" fill="#55D087"/>
    <path d="M234.436 423.362a88.863 88.863 0 0 0 24.054-2.471M265.173 475.411c10.04-15.404 20.089-30.822 31.144-45.514 6.967-9.26 14.33-18.226 20.997-27.704" stroke="#010101" stroke-width="1.5" stroke-linecap="round" stroke-linejoin="round"/>
    <path d="M219.173 443.53a3624.458 3624.458 0 0 1 53.918-70.756" stroke="#010101" stroke-width="1.5" stroke-linecap="round" stroke-linejoin="round"/>
    <path d="M33.923 380.341a561.498 561.498 0 0 0 40.604 35.612c4.173-9.39 8.423-18.745 12.749-28.065 3.68-7.931 7.512-15.978 13.491-22.358 14.563-15.54 37.891-17.755 58.783-21.886a235.52 235.52 0 0 0 75.2-28.955c2.842-1.703 5.702-3.513 7.796-6.08 4.184-5.127 10.985-25.483 19.77-46.917 8.529 1.605 21.293 3.21 29.821 4.815a343.727 343.727 0 0 1-25.056 64.979c-2.765 5.449-5.777 10.954-10.405 14.944-3.688 3.18-8.2 5.222-12.68 7.131a370.13 370.13 0 0 1-47.03 16.396c.06 24.751 1.272 46.862 2.785 74.904-28.41 1.09-59.39 2.457-87.668 5.4 1.686-17.017 1.467-33.854 2.666-45.961-3.628 7.996-23.19 42.596-36.19 43.296-7.277.392-14.33-2.044-20.671-5.635-17.588-9.958-31.98-25.202-44.698-40.91 7.125-7.598 12.946-13.241 20.73-20.71h.003Z" fill="#7B5FF1" stroke="#010101" stroke-width="1.5" stroke-linecap="round" stroke-linejoin="round"/>
    <path d="M533.241 331.68c5.451-48.431 13.474-110.106 19.788-158.432-27.282 0-46.892.228-70.124.835-5.401 48.415-12.816 109.003-16.033 159.224 20.883.191 45.023-.27 66.369-1.626v-.001Z" fill="#fff" stroke="#010101" stroke-width="1.5" stroke-linecap="round" stroke-linejoin="round"/>
    <path d="M538.614 220.158c-4.148 2.004-36.371 1.82-51.926 1.789-.047-12.168 1.007-24.228 2.747-36.187 18.032-1.552 35.625-2.009 53.207-1.041-2.031 11.847-3.564 23.78-4.028 35.439Z" stroke="#010101" stroke-width="1.5" stroke-linecap="round" stroke-linejoin="round"/>
    <path d="M489.434 185.759c17.377 10.544 32.419 21.866 49.16 33.393M541.701 185.61l-54.867 36.004M533.52 267.727c-4.148 2.004-36.371 1.82-51.926 1.789-.047-12.168 1.007-24.228 2.747-36.187 18.032-1.552 35.625-2.009 53.207-1.041-2.031 11.847-3.564 23.78-4.028 35.439Z" stroke="#010101" stroke-width="1.5" stroke-linecap="round" stroke-linejoin="round"/>
    <path d="M484.341 233.329c17.377 10.544 32.419 21.866 49.16 33.393M536.607 233.179l-54.867 36.004M528.236 315.296c-4.148 2.004-36.371 1.82-51.926 1.789-.047-12.168 1.007-24.228 2.747-36.187 18.032-1.552 35.625-2.009 53.207-1.041-2.031 11.847-3.564 23.78-4.028 35.439Z" stroke="#010101" stroke-width="1.5" stroke-linecap="round" stroke-linejoin="round"/>
    <path d="M479.057 280.898c17.377 10.544 32.419 21.866 49.16 33.393M531.323 280.748l-54.867 36.004" stroke="#010101" stroke-width="1.5" stroke-linecap="round" stroke-linejoin="round"/>
    <path d="M644.202 100.255c-.915 6.145-2.755 12.128-5.682 17.724a54.76 54.76 0 0 1-6.876 10.191c-5.144 6.112-11.504 11.095-18.552 15.162-11.558 6.683-24.966 10.912-37.976 13.634-14.7 3.078-30.164 4.853-44.637 1.238a61.493 61.493 0 0 1-4.304-1.248c-7.253-2.4-13.828-6.252-19.596-11.17-9.319-7.942-16.518-18.649-21.038-30.465-3.002-7.823-4.832-16.142-5.327-24.46-.581-9.9.463-19.973 3.777-29.292 5.284-14.883 16.206-27.269 29.195-35.878 12.999-8.609 50.986-24.374 80.257-13.86 15.464 5.542 27.495 18.595 36.685 32.477 10.761 16.26 16.884 36.922 14.076 55.947h-.002Z" fill="#7B5FF1" stroke="#010101" stroke-width="1.5" stroke-linecap="round" stroke-linejoin="round"/>
    <path d="M532.685 2.428c.483.107 1.245-.28 1.622.039.094-.365.611-.466.937-.276.326.19.501.555.657.898.187-.727 1.33-1.209 2.076-1.137 1.972.19 1.134.94 1.839 1.198.456-1.523 3.051-.764 2.939 1.073a.278.278 0 0 1 .115-.367c2.216-.426 2.302.766 2.647 2.137.769-.6 1.68-.226 1.962.479-.124-.494.479-.919.981-.832.502.087.881.488 1.222.865.46-.318 1.115-.198 1.566.133.451.331.743.829 1.023 1.313a1.517 1.517 0 0 1 1.389.5c.334.392.443.964.275 1.45-.073-.117.077-.27.214-.254.137.016.24.129.327.236a11.353 11.353 0 0 1 1.409 2.209c1.113.596 1.571 1.741 1.259 2.695.525.228.776.935.513 1.444.623-.004 1.054.627 1.244 1.22.19.593.281 1.259.72 1.701.427.43 1.16.628 1.293 1.219.125.555-.381 1.036-.846 1.365.579.045 1.005.55 1.315 1.041a9.979 9.979 0 0 1 1.346 3.349c.884.313 1.419.8 1.494 1.381.075.581-.32 1.187-.882 1.354.74.387 1.399 1.016 1.61 1.825.211.809-.147 1.787-.921 2.101.534.19 1.052.533 1.269 1.057.217.524.016 1.238-.517 1.432l.918.31a8.126 8.126 0 0 1-.316 2.982c.536.621.803 1.033.757 1.432a.904.904 0 0 1-.799.773c.456.351.668.991.51 1.545a1.486 1.486 0 0 1-1.247 1.045c.604.39.668 1.388.119 1.852.214.703.095 1.5-.314 2.111.305.25.354.615.266.827a4.576 4.576 0 0 1-1.976 2.21c.107-.081.211.11.203.243-.057 1.008-.755 1.88-1.578 2.464-.444.315-.939.575-1.297.985-.564.647-.696 1.553-.805 2.404-1.117 1.508-1.428 3.73-2.127 5.804-2.191 6.503-8.162 11.191-14.647 13.433-6.485 2.242-13.493 2.374-20.353 2.221-1.888-.042-3.824-.114-5.566-.842-1.742-.729-3.272-2.262-3.45-4.142-.649-.275-1.099-.536-1.333-.934a1.374 1.374 0 0 1-.024-1.325 1.055 1.055 0 0 1-1.303.076c-.38-.28-.52-.841-.315-1.267-.303.235-.809.124-.986-.216-.177-.34.024-.818.391-.93-.419.43-1.213.163-1.514-.357-.301-.52-.258-1.162-.205-1.76-.489.438-1.718.117-1.927-.631-.209-.748.257-1.513.784-2.083-.321.842-1.601 1.102-2.224.451-.623-.651-.309-1.918.546-2.203-.657.396-1.578.283-2.121-.26a1.932 1.932 0 0 1 1.063-1.329c-.576.658-1.754.637-2.306-.041s-.335-1.835.426-2.267c-.848.109-1.737-.414-2.054-1.208-.317-.794-.033-1.785.657-2.29-.816.1-1.67-.39-1.995-1.145-.325-.755-.094-1.712.54-2.236-1.372-.136-1.889-2.338-.72-3.07-1.251-.376-1.645-2.301-.643-3.138-1.415-.16-1.923-2.435-.712-3.182-1.144-.395-1.384-2.232-.378-2.907l-1.041-.504c1.646-1.501-.467-4.727 1.079-6.33-.936-.835-.768-2.58.311-3.22-.762-.513-.756-2.778-.42-3.633.446-1.134 1.137-1.167 1.582-2.301-.369-.194-.559-2.326-.435-2.724.388-1.245 2.032-.788 2.707-1.904.562-.93-.009-3.091.724-3.894.733-.803 1.484-.062 2.363-.701-.118-1.386 1.435-2.992 2.509-2.247-.668-2.808 2.874-3.161 3.102-1.849.114-.509-.348-1.987.147-2.153a1.555 1.555 0 0 1 1.471.286c-.232-.615 0-1.372.536-1.751a1.545 1.545 0 0 1 1.83.076 1.247 1.247 0 0 1 .55-1.392c.465-.271 1.722-.488 2.217.157-.144-1.941 3.39-1.603 3.52-1.334-.038-.511.468-.93.977-.987.509-.057 1.007.146 1.477.348.24-.691.677-1.355 1.34-1.662.663-.307 1.266.469 1.631 1.102a1.99 1.99 0 0 1 1.464-1.301c.67-.136 1.711.724 2.162 1.238a2.18 2.18 0 0 1 1.924-.886c.736.064 1.423.538 2.231 1.311v.002Z" fill="#010101" stroke="#010101" stroke-width="1.5" stroke-linecap="round" stroke-linejoin="round"/>
    <path d="M445.222 170.088a3638.001 3638.001 0 0 1-21.099 8.08c-3.748-2.244-8.17-4.566-12.273-3.068-2.011.734-3.594 2.295-5.064 3.851-3.242 3.432-10.717 8-9.063 10.871 1.701 1.304 5.41-1.668 7.659-3.422 2.25-1.754 4.529-3.69 7.323-4.267 2.794-.577 6.241.832 6.76 3.637.506 2.734-2.006 5.222-4.68 5.984-2.674.762-5.523.361-8.299.517-1.475.083-3.243.582-3.605 2.014-.599 2.375 2.975 3.311 5.41 3.04a621.4 621.4 0 0 0 37.571-5.348c20.776-3.608 16.318-28.44-.641-21.888l.001-.001Z" fill="#fff" stroke="#010101" stroke-width="1.5" stroke-linecap="round" stroke-linejoin="round"/>
    <path d="M394.869 192.022c10.017-6.952 20.033-13.292 30.05-20.245l2.714 4.8c-10.104 6.994-19.903 13.988-30.007 20.982-1.066-1.38-2.175-3.574-2.757-5.538v.001Z" fill="#fff" stroke="#010101" stroke-width="1.5" stroke-linecap="round" stroke-linejoin="round"/>
    <path d="M394.775 192.181a252.333 252.333 0 0 1-3.205 5.546c1.997.131 4.002.123 5.998-.022-1.228-1.803-2.455-3.606-2.793-5.524Z" stroke="#010101" stroke-width="1.5" stroke-linecap="round" stroke-linejoin="round"/>
    <path d="m420.626 175.298 2.648 3.403Z" fill="#fff"/>
    <path d="m420.626 175.298 2.648 3.403" stroke="#010101" stroke-width="1.5" stroke-linecap="round" stroke-linejoin="round"/>
    <path d="M506.106 32.523c.445-.363.172-1.065.16-1.639-.012-.574.942-1.069 1.004-.498-.72-.074-1.348-.912-.989-1.541.359-.629 1.628-.146 1.324.511-.616-.326-.851-1.211-.478-1.8.372-.589 1.272-.756 1.831-.34l-.529-2.129 1.173-.008c.361-.698.051-1.663-.65-2.019-.296.576.872.973 1.173.4.301-.573-.186-1.284-.78-1.543-.519.113-.499 1.001-.004 1.193.495.193 1.071-.24 1.169-.762.098-.522-.172-1.053-.544-1.432.898-.126 1.484-1.261 1.067-2.066.191.42.992.032.781-.378l.966 1.283c-.455.347-.524 1.097-.14 1.521.384.424 1.137.43 1.527.011-.503.352-.643 1.128-.294 1.633.349.505 1.123.651 1.631.307-.295.484-.15 1.186.312 1.514.462.329 1.172.235 1.533-.202-.106.73.619 1.455 1.349 1.349.73-.106 1.218-1.009.907-1.678-.541.814-.058 2.098.886 2.352.944.255 2.007-.611 1.949-1.587-.79.653-.47 2.171.517 2.45.987.279 2.053-.848 1.722-1.818-.322.863.407 1.935 1.327 1.954.92.019 1.692-1.023 1.406-1.898-.815.417-.856 1.787-.068 2.252.789.465 1.968-.234 1.938-1.15-.409.712-.071 1.745.68 2.077.751.332 1.742-.113 1.993-.896.028.601.554 1.137 1.154 1.178.6.041 1.193-.42 1.302-1.011-.442.024-.516.733-.175 1.016.341.283.834.25 1.274.201.44-.049.932-.084 1.276.195l.14-1.742c-.055.428.138.879.253 1.219 1.011-.157 1.325-1.446 2.049-2.169.528-.527 1.287-.747 2.024-.866.564-.091 1.153-.134 1.7.03.636.191 1.157.641 1.638 1.098.576.547 1.13 1.13 1.534 1.813.891 1.506.96 3.449.242 5.044-.718 1.595-2.795 4.963-4.657 5.675 3.114 6.194 4.572 10.95 8.382 16.592 2.366-.23 5.531-1.65 8.629-2.526 3.366 2.544 6.486 5.714 7.771 9.733 1.407 4.401.42 9.228-1.271 13.528-.929 2.363-2.093 4.68-3.838 6.524-1.861 1.966-4.29 3.298-6.768 4.389a48.745 48.745 0 0 1-22.973 3.993c-2.615-.185-5.274-.602-7.583-1.842-2.834-1.523-4.952-4.239-5.971-7.291-1.02-3.052-.98-6.409-.131-9.512.268-.978.629-1.961 1.305-2.718.768-.859 1.861-1.341 2.918-1.797 2.434-1.051 4.868-2.102 7.273-3.32-.865-2.057-1.809-4.081-2.944-6.376-5.013 1.994-11.294.033-14.283-4.459-1.042-1.566-1.696-3.354-2.279-5.142-1.827-5.602-3.047-11.401-3.84-16.885v.005Z" fill="#fff" stroke="#010101" stroke-width="1.5" stroke-linecap="round" stroke-linejoin="round"/>
    <path d="M644.202 100.255c-.915 6.145-2.755 12.128-5.682 17.724a54.76 54.76 0 0 1-6.876 10.191c-14.442-9.965-28.323-22.964-41.172-33.876 7.07 15.335 15.442 33.435 22.62 49.039-11.558 6.683-24.966 10.912-37.976 13.634-14.7 3.078-30.164 4.853-44.637 1.238-.334-.818-.689-1.679-1.065-2.583-4.616-10.944-10.169-26.483-14.797-37.427-2.443 8.641-5.327 18.326-8.039 27.592a1243.32 1243.32 0 0 0-3.336 11.579c-1.216 4.283-2.486 8.684-5.251 12.182-3.766 4.778-9.728 7.156-15.399 9.33-16.927 6.478-33.844 12.957-49.954 18.94-2.281-8.017-4.552-16.034-6.833-24.051 15.668-6.037 31.347-12.063 47.758-19.026l11.977-39.418c1.991-6.564 3.982-13.118 5.972-19.671 1.27-4.186 2.572-8.447 5.036-12.063 5.273-7.726 14.764-11.149 24.148-14.194 1.722 5.876 6.069 10.912 11.622 13.484 5.542 2.561 12.203 2.615 17.788.129 3.228-1.442 6.134-3.723 7.985-6.747 3.982-6.521 2.41-14.883 0-22.394 6.371-2.421 13.247-4.864 19.844-3.142 4.003 1.044 7.458 3.54 10.783 6.005a1237.096 1237.096 0 0 1 55.485 43.529l-.001-.004Z" fill="#fff" stroke="#010101" stroke-width="1.5" stroke-linecap="round" stroke-linejoin="round"/>
    <path d="M546.235 84.276c7.479 21.368 16.479 44.898 23.957 66.266" stroke="#010101" stroke-width="1.5" stroke-linecap="round" stroke-linejoin="round"/>
    <path d="M529.19 154.568c27.793.317 45.847-3.543 81.852-15.694M514.25 39.878l-.049 7.603a8.72 8.72 0 0 0 3.923-.038M525.806 59.341c2.517-.6 4.558-2.384 6.487-4.109M558.618 95.095c-.402.188-.743.535-.858.964-.115.429.026.932.387 1.191.357.256.837.239 1.273.191.17-.018.346-.042.488-.136.129-.085.215-.22.297-.351.134-.215.266-.436.328-.681.062-.245.048-.522-.096-.73a.993.993 0 0 0-.375-.303c-.314-.16-.742-.472-1.444-.145ZM571.833 132.444c-.689-.097-1.414.442-1.487 1.135-.073.692.555 1.383 1.25 1.347.548-.029 1.026-.467 1.18-.993.154-.526.075-1.344-.942-1.488l-.001-.001ZM566.391 115.297c-.689-.097-1.414.442-1.487 1.135-.073.693.555 1.383 1.25 1.347.548-.029 1.026-.467 1.18-.993.154-.526.075-1.344-.942-1.488l-.001-.001Z" stroke="#010101" stroke-width="1.5" stroke-linecap="round" stroke-linejoin="round"/>
    <path d="M145.309 317.596c-1.109 1.106-2.828 1.558-4.338 1.142-1.51-.417-2.753-1.686-3.138-3.205-.228-.898-.17-1.849.032-2.752.408-1.827 1.489-3.587 3.174-4.403 1.685-.816 3.984-.435 4.978 1.313 1.891 1.01 4.323.407 6.006-.921 1.683-1.328 2.771-3.253 3.773-5.149 2.334-4.415 4.471-9.082 4.835-14.063 4.083 3.489 9.687 5.13 15.12 4.138 1.281 3.575 1.833 7.363 2.379 11.122.467 3.22.721 6.484.245 9.703-1.378 9.329-5.526 11.601-11.476 13.663.169 4.086.339 8.173.759 12.428 3.009-.331 6.008-.76 8.773-1.464.745 8.203.237 16.628-2.54 24.382-2.777 7.754-7.966 14.806-15.156 18.489-4.055-1.288-7.996-3.225-10.978-6.261-2.19-2.23-3.787-4.971-5.155-7.781-3.216-6.605-5.291-12.688-5.257-20.334 2.072-.397 5.773-1.12 7.824-1.914 0-8.576.14-17.057.14-28.134v.001Z" fill="#fff" stroke="#010101" stroke-width="1.5" stroke-linecap="round" stroke-linejoin="round"/>
    <path d="M158.887 327.234a11.992 11.992 0 0 0 8.026.979M168.539 302.751a39.725 39.725 0 0 1 3.925 7.217 26.493 26.493 0 0 1-3.136 1.773M158.735 382.019c.748 21.718.963 42.876 1.711 64.594" stroke="#010101" stroke-width="1.5" stroke-linecap="round" stroke-linejoin="round"/>
    <path d="m166.134 495.628 7.546 9.705c.633.814 1.499 1.719 2.507 1.502a99.02 99.02 0 0 0 .169-19.262c-4.581 1.436-8.874 3.784-10.222 8.055Z" fill="#fff" stroke="#010101" stroke-width="1.5" stroke-linecap="round" stroke-linejoin="round"/>
    <path d="M112.086 450.261c-19.84 1.372-29.662.42-42.62 6.924-2.563 1.287-4.998 2.912-6.879 5.077-6.671 7.676-4.257 20.431 3.091 27.462 7.348 7.031 18.099 9.302 28.269 9.321 10.17.019 16.973-.449 30.439-1.877 6.667-.707 10.966 4.002 10.966 4.002s38.346-2.719 59.085-5.167c21.087-2.489 80.906-16.12 43.851-44.439-7.978-6.097-28.518-7.395-38.535-6.703-17.54 1.213-53.338 3.025-87.667 5.4Z" fill="#010101" stroke="#010101" stroke-width="1.5" stroke-linecap="round" stroke-linejoin="round"/>
    <path d="M140.17 468.772c-6.314-.425-8.858-.576-15.185-.494 0 12.525-1.471 32.252-2.266 41.993-.127 1.557 1.895 2.263 2.766.966 4.466-6.653 12.01-17.803 12.68-18.196.627-.368 2.13.022 2.057-.702-.692-6.865-.051-14.152-.051-23.568l-.001.001Z" fill="#fff" stroke="#010101" stroke-width="1.5" stroke-linecap="round" stroke-linejoin="round"/>
    <path d="M85.105 464.418c18.863.695 36.701-.027 55.574-.352" stroke="#fff" stroke-width="1.5" stroke-linecap="round" stroke-linejoin="round"/>
    <path d="M206.219 454.711a662.64 662.64 0 0 0-65.236 6.909 207.343 207.343 0 0 0-1.424 38.966" stroke="#fff" stroke-width="1.5" stroke-linecap="round" stroke-linejoin="round"/>
    <path d="M267.943 262.427c.623-4.275-.451-11.598-1.21-17.418-.119-.915.077-2.194.999-2.233.466-.02.856.331 1.176.669a19.311 19.311 0 0 1 4.041 6.47c-.149-6.396 1.503-14.759 2.475-21.082.56-2.676 2.811-1.951 3.329-1.208.518.743.324 1.889.374 2.794.253 4.624-1.273 9.538-.722 13.917 4.706.104 13.029 1.16 13.761 4.223.731 3.059-3.82 13.716-4.313 16.822-2.786 0-15.823-2.151-19.91-2.954Z" fill="#fff" stroke="#010101" stroke-width="1.5" stroke-linecap="round" stroke-linejoin="round"/>
    <path d="M278.813 242.101c-.502 2.445-.854 5.35-1.356 7.795-.112.548-.225 1.109-.142 1.662.083.553.406 1.104.928 1.303.759.288 1.584-.254 2.105-.877 1.724-2.065 2.115-6.783 3.34-9.178a31.846 31.846 0 0 0-1.828 7.55c-.118 1.021-.131 2.2.62 2.901.174.162.4.293.637.27.163-.016.31-.101.447-.192 1.419-.942 2.245-2.549 2.829-4.149.584-1.6.995-3.282 1.862-4.747l-1.834 6.424c-.612 2.142.154 3.352 1.991 3.028 1.422-.251 3.193-3.365 3.755-5.33.213-.746.624-1.78-1.143-3.203-2.274-1.831-10.552-4.709-12.21-3.256l-.001-.001Z" fill="#fff" stroke="#010101" stroke-width="1.5" stroke-linecap="round" stroke-linejoin="round"/>
    <path d="M348.519 204.832c1.623-3.441 5.175-5.89 8.968-6.185 6.323-.492 12.35 4.526 18.552 3.198 2.134-.457 4.038-1.635 6.103-2.34a14.306 14.306 0 0 1 5.458-.739c1.189.071 2.72.102 3.175-.999M346.879 233.172c2.68-3.75 7.42-5.922 12.011-5.503 3.796.347 7.349 2.313 11.161 2.339 4.363.03 8.326-2.467 12.61-3.292 5.113-.985 10.341.454 15.534.827 12.335.887 24.847-4.244 36.903-1.492 3.807.869 7.53 2.519 11.43 2.322 5.149-.26 10.226-3.721 15.121-2.101M348.414 266.32c3.235-2.548 6.83-5.224 10.948-5.153 3.835.067 7.201 2.52 10.938 3.382 4.011.925 8.189-.028 12.194-.978M397.178 340.373l-57.404.321c-3.434.019-6.912.033-10.238-.819-3.326-.852-6.539-2.683-8.335-5.61-1.489-2.427-1.882-5.394-1.684-8.234.581-8.307 7.058-16.407 15.366-16.965 21.868-.598 43.61-.612 65.365-1.158 5.401-.501 11.082 1.423 14.718 5.447 3.636 4.025 4.949 10.151 2.845 15.151-1.65 3.922-5.09 6.809-8.704 9.056-3.072 1.91-6.814 3.511-11.931 2.81l.002.001Z" stroke="#010101" stroke-width="1.5" stroke-linecap="round" stroke-linejoin="round"/>
    <path d="M335.87 329.464c2.799-2.015 4.648-5.094 7.273-7.331 2.624-2.237 6.79-3.457 9.415-1.221 1.478 1.259 2.054 3.268 3.22 4.82 2.046 2.725 6.067 3.749 9.167 2.333 2.671-1.22 4.736-4.013 7.672-4.083 1.549-.036 2.987.723 4.457 1.214 6.347 2.118 13.519-.76 19.912 1.217M93.26 93.153c8.765-5.634 15.267-14.687 17.805-24.793.776 4.385 1.571 8.829 3.471 12.856 1.901 4.027 5.074 7.655 9.283 9.108-6.28 4.643-10.506 11.967-11.384 19.728-1.876-9.344-10.115-17.053-19.175-16.899ZM615.125 205.645a27.418 27.418 0 0 0 8.511-10.52c.091 2.313.194 4.679 1.057 6.827.864 2.148 2.652 4.071 4.937 4.441-3.06 1.696-5.343 4.735-6.119 8.146-.037-3.946-3.615-7.517-8.386-8.894ZM356.385 434.525a30.342 30.342 0 0 0 13.233-11.947c-.187 5.212 3.566 10.307 8.599 11.673-4.952 2.758-8.309 8.184-8.565 13.847.157-6.463-5.251-12.575-13.267-13.573ZM38.124 246.131l6.542 1.09M416.458 79.316l1.817 6.905M408.411 459.523l-2.181 9.086" stroke="#010101" stroke-width="1.5" stroke-linecap="round" stroke-linejoin="round"/>
    <path d="M291.433 68.353c-1.137.357-1.703 1.862-1.152 2.919.551 1.057 2.019 1.476 3.085.945 1.058-.527 1.609-1.937 1.104-3.006-.505-1.069-1.897-1.216-3.038-.858h.001ZM665.886 256.392c-1.137.357-1.703 1.862-1.152 2.919.551 1.057 2.019 1.476 3.085.945 1.058-.527 1.609-1.937 1.104-3.006-.505-1.069-1.896-1.216-3.037-.858ZM464.155 408.966c-1.137.357-1.703 1.862-1.152 2.919.551 1.057 2.019 1.476 3.085.945 1.058-.527 1.609-1.937 1.104-3.006-.505-1.069-1.897-1.216-3.038-.858h.001ZM48.737 281.626c-3.409.027-6.695 2.635-7.261 5.997-.565 3.362 1.881 7.017 5.248 7.553 3.558.566 7.137-2.474 7.54-6.054.403-3.581-2.074-7.156-5.527-7.495v-.001ZM19.047 475.804c-3.409.027-6.695 2.635-7.261 5.997-.565 3.362 1.881 7.017 5.248 7.553 3.558.566 7.137-2.474 7.54-6.054.403-3.581-2.074-7.156-5.527-7.495v-.001ZM240.979 261.166c-3.409.027-6.695 2.635-7.261 5.997-.565 3.362 1.881 7.017 5.248 7.553 3.558.566 7.137-2.474 7.54-6.054.403-3.581-2.074-7.156-5.527-7.495v-.001Z" fill="#010101" stroke="#010101" stroke-width="1.5" stroke-linecap="round" stroke-linejoin="round"/>
    <path d="M652.434 361.343c-.28 12.655-2.034 25.558-5.983 37.406-2.83 8.523-6.801 16.497-12.16 23.459-.14.183-.291.377-.452.56-9.093 11.558-21.2 19.123-34.554 23.589-14.678 4.918-30.863 6.08-46.187 4.692-10.697-.968-21.253-3.368-31.347-7.447-6.048-2.443-11.396-5.294-16.142-8.426-32.219-21.275-36.168-55.883-35.114-69.851a36.21 36.21 0 0 1 .301-2.701c1.722-11.235 4.681-22.329 8.878-32.768 5.467-13.581 13.043-26.064 22.781-36.373 17.229-18.229 41.538-29.023 65.374-26.289 25.267 2.884 55.14 12.096 71.271 36.911 10.611 16.336 13.785 37.212 13.333 57.239l.001-.001Z" fill="#E3E3FF" stroke="#010101" stroke-width="1.5" stroke-linecap="round" stroke-linejoin="round"/>
    <path d="M646.451 398.749c-2.83 8.523-6.801 16.497-12.16 23.459-.14.183-.291.377-.452.56-.764.355-1.528.7-2.292 1.044a291.724 291.724 0 0 0-23.933-35.254l-7.813 49.351c-.043 2.787-.075 5.682-.517 8.448-14.678 4.918-30.863 6.08-46.187 4.692-10.697-.968-21.253-3.368-31.347-7.447-6.048-2.443-11.396-5.294-16.142-8.426 1.668-21.802 5.79-39.321 6.952-61.435-8.673-1.431-31.928-5.66-42.065-8.415-2.238-.603-3.831-1.141-4.498-1.56-17.713-11.127-26.849-48.49-35.404-67.128 8.867-4.638 17.734-9.265 26.602-13.903 6.026 15.927 13.258 32.509 22.48 47.123a143.142 143.142 0 0 0 5.477 8.135c18.864 1.528 39.429 2.389 64.244 4.391.527 6.608 5.8 17.1 14.7 18.208 14.71 1.829 19.144-6.586 21.156-15.539 8.717.57 13.86.882 22.642 2.497 2.185.398 4.326 1.184 6.134 2.464 2.109 1.496 3.54 3.745 4.918 5.919 6.134 9.717 12.278 19.435 18.412 29.152 2.927 4.616 5.854 9.265 9.093 13.667v-.003Z" fill="#010101" stroke="#010101" stroke-width="1.5" stroke-linecap="round" stroke-linejoin="round"/>
    <path d="M596.442 385.759c-6.792-.35-13.559-1.188-20.51-2.806-1.067 6.095-1.855 12.238-2.171 18.507.407 1.154 1.556 1.849 2.629 2.437 2.394 1.314 4.905 2.601 7.629 2.797 3.975.286 7.733-1.79 10.571-4.289 1.254-5.87 1.829-11.885 1.852-16.647v.001Z" stroke="#fff" stroke-width="1.5" stroke-linecap="round" stroke-linejoin="round"/>
    <path d="m388.072 241.4.57 35.491c17.933-1.699 35.93.301 53.94-.053 1.21-14.037.165-21.814 1.403-36.167-11.397.716-45.23.058-55.913.729Z" fill="#7B5FF1" stroke="#010101" stroke-width="1.5" stroke-linecap="round" stroke-linejoin="round"/>
    <path d="M453.601 284.314c-1.107-3.897-2.267-7.899-4.747-11.102-1.073-1.386-2.366-2.583-3.652-3.773-2.201-2.036-4.56-4.156-7.5-4.745-.44-.088-.914-.136-1.321.051-.81.374-.961 1.528-.577 2.333.384.805 1.13 1.364 1.789 1.966 2.034 1.854 3.768 4.9 5.825 7.543-4.544.484-9.087.131-13.631.615.661 3.234 3.763 13.336 5.805 16.434 7.752-3.403 9.988-5.3 18.01-9.323l-.001.001Z" fill="#fff" stroke="#010101" stroke-width="1.5" stroke-linecap="round" stroke-linejoin="round"/>
    <path d="M552.308 302.961c.543-6.016 1.117-12.154 3.543-17.685.591-1.348 1.305-2.671 2.354-3.702 1.522-1.496 3.651-2.261 5.776-2.46 2.125-.199 4.264.126 6.353.561 6.124 1.274 12.007 3.488 17.832 5.766 1.853.725 3.73 1.472 5.31 2.682 3.449 2.64 5.287 6.942 5.154 11.284-.133 4.341-1.755 8.501-3.692 12.388-4.169 8.366-10.732 13.493-17.664 19.763-3.303-4.464-4.28-11.903-8.403-18.658-3.149-5.158-7.631-9.698-16.563-9.938v-.001Z" fill="#010101" stroke="#010101" stroke-width="1.5" stroke-linecap="round" stroke-linejoin="round"/>
    <path d="M443.656 276.89a6.142 6.142 0 0 0-2.164 2.721c-.248.616-.394 1.267-.523 1.919-.211 1.064-.377 2.183-.059 3.22" stroke="#010101" stroke-width="1.5" stroke-linecap="round" stroke-linejoin="round"/>
    <path d="M558.131 329.007c-.859 4.42-.818 7.381-2.059 13.77-2.815-.152-4.312-.407-7.116-.115-2.381 5.994-.047 16.7 5.127 19.94 1.743 1.092 3.72 1.761 5.722 2.234 2.954.697 6.004.984 9.036.849 3.721-.166 7.478-.994 10.664-2.923s5.753-8.63 6.511-12.277c.285-1.373 1.313-5.033-.044-5.385-2.24-.582-5.963-1.047-8.714-1.399 1.254-8.366 2.254-16.423 3.253-24.479 3.094.181 6.326-1.953 7.006-4.922.487-2.129-.621-4.775-2.772-5.157-1.36-.241-2.747.481-3.666 1.512-.919 1.031-1.459 2.336-1.982 3.615l-2.354-.384c-.351-1.397.981-2.907.387-4.219-.534-1.18-2.206-1.287-3.113-2.211-1.057-1.077-.753-2.868-.173-4.261.58-1.393 1.383-2.836 1.092-4.317-.429-2.183-2.959-3.217-5.169-3.471-2.21-.254-4.635-.168-6.4-1.523-.636-.488-1.151-1.145-1.869-1.501-1.129-.561-2.543-.234-3.56.512s-1.71 1.845-2.327 2.945c-1.595 2.845-2.844 5.884-3.85 9.167-1.969 5.134-3.969 10.666-2.668 16.009.323 1.325.856 2.619 1.715 3.679 1.053 1.298 2.527 2.173 3.981 2.997 1.113.63 3.372 1.169 3.343 1.316l-.001-.001Z" fill="#fff" stroke="#010101" stroke-width="1.5" stroke-linecap="round" stroke-linejoin="round"/>
    <path d="M557.447 328.838a33.687 33.687 0 0 0 7.937 1.292M557.724 306.797l-3.338 4.87c-.057.083-.117.177-.101.277.015.095.093.165.169.223.943.717 1.662.799 3.407 1.463M404.158 251.621l-8.92 6.476a67.454 67.454 0 0 0 8.557 7.705M417.886 247.612a237.456 237.456 0 0 0-6.211 20.555M424.301 250.458c2.608 2.718 6.556 5.466 9.618 7.658-2.804 2.431-7.786 6.224-10.59 8.655" stroke="#010101" stroke-width="1.5" stroke-linecap="round" stroke-linejoin="round"/>
    <path d="M193.826 208.365c2.394-15.001 2.987-32.744 5.621-49.25-41.362.938-82.697-.185-123.935 3.143-.073 15.657-1.5 30.922-2.383 46.686 41.194.914 84.397.244 120.697-.579Z" fill="#E3E3FF" stroke="#010101" stroke-width="1.5" stroke-linecap="round" stroke-linejoin="round"/>
    <path d="M104.766 174.055c-5.12-.488-10.357 2.877-12.043 7.735-1.686 4.859.343 10.744 4.665 13.531 2.066 1.333 4.518 1.978 6.969 2.182 2.851.238 5.909-.165 8.147-1.947 2.131-1.697 3.223-4.422 3.583-7.122.638-4.794-.998-10.036-4.834-12.983-1.729-1.328-4.044-2.158-6.487-1.398v.002Z" fill="#fff" stroke="#010101" stroke-width="1.5" stroke-linecap="round" stroke-linejoin="round"/>
    <path d="M134.856 175.69a924.419 924.419 0 0 0 48.231-2.412Z" fill="#E3E3FF"/>
    <path d="M134.856 175.69a924.419 924.419 0 0 0 48.231-2.412" stroke="#010101" stroke-width="1.5" stroke-linecap="round" stroke-linejoin="round"/>
    <path d="M135.058 186.812c8.624-.07 17.245-.486 25.836-1.246Z" fill="#E3E3FF"/>
    <path d="M135.058 186.812c8.624-.07 17.245-.486 25.836-1.246M292.679 475.961l27.807-.315" stroke="#010101" stroke-width="1.5" stroke-linecap="round" stroke-linejoin="round"/>
  </g>
  <defs>
    <clipPath id="a">
      <path fill="#fff" d="M0 0h669.863v512.663H0z"/>
    </clipPath>
  </defs>
</svg>